<svg width="686" height="734" viewBox="0 0 686 734" fill="none" xmlns="http://www.w3.org/2000/svg">
<mask id="path-1-outside-1_1081_79" maskUnits="userSpaceOnUse" x="109" y="0" width="577" height="648" fill="black">
<rect fill="white" x="109" width="577" height="648"/>
<path d="M571.671 55.001C603.15 54.8955 628.756 80.3291 628.861 111.81L629.679 355.588C629.679 355.697 629.676 355.807 629.676 355.916H629.693V458.479C629.917 460.499 630.037 462.55 630.044 464.628L630.276 533.987C630.382 565.467 604.948 591.073 573.468 591.179L318.109 592.034C278.499 592.167 237.38 585.6 206.419 561.35V561.349C166.565 530.132 166.949 481.397 166.868 457.251L166.563 366.235L166.091 291.494V291.483L165.001 113.522C164.808 81.9813 190.268 56.2786 221.81 56.1729L571.671 55.001ZM221.997 112.173C221.478 112.175 221.053 112.571 221.005 113.076L221.001 113.179L222.09 291.141L222.562 365.882L222.868 457.063C222.96 484.381 225.091 504.265 240.22 516.678L240.95 517.263C257.078 529.895 282.736 536.152 317.922 536.034L573.28 535.179C573.798 535.177 574.223 534.782 574.272 534.278L574.276 534.176L574.044 464.815L574.039 464.713C573.986 464.209 573.559 463.817 573.041 463.818L317.683 464.675L316.747 464.672C297.264 464.493 287.496 456.599 287.443 440.989L287.244 381.523C287.191 365.666 297.218 357.702 317.324 357.635L572.683 356.779C573.235 356.777 573.68 356.328 573.679 355.776L572.861 111.997C572.859 111.445 572.411 110.998 571.858 111L221.997 112.173ZM360.979 183.066C361.496 183.065 361.923 183.457 361.977 183.961L361.982 184.063L362.244 262.354C362.297 278.211 352.271 286.173 332.165 286.24L322.111 286.273L321.176 286.271C301.692 286.093 291.925 278.198 291.872 262.589L291.609 184.3L291.614 184.197C291.664 183.693 292.089 183.298 292.606 183.296L360.979 183.066ZM501.725 182.595C502.242 182.593 502.67 182.985 502.723 183.489L502.729 183.592L502.951 249.988C503.004 265.846 492.976 273.807 472.87 273.875L462.818 273.909L461.883 273.906C442.399 273.727 432.631 265.833 432.578 250.224L432.355 183.828L432.36 183.726C432.407 183.255 432.78 182.879 433.25 182.829L433.353 182.824L501.725 182.595Z"/>
</mask>
<path d="M571.671 55.001C603.15 54.8955 628.756 80.3291 628.861 111.81L629.679 355.588C629.679 355.697 629.676 355.807 629.676 355.916H629.693V458.479C629.917 460.499 630.037 462.55 630.044 464.628L630.276 533.987C630.382 565.467 604.948 591.073 573.468 591.179L318.109 592.034C278.499 592.167 237.38 585.6 206.419 561.35V561.349C166.565 530.132 166.949 481.397 166.868 457.251L166.563 366.235L166.091 291.494V291.483L165.001 113.522C164.808 81.9813 190.268 56.2786 221.81 56.1729L571.671 55.001ZM221.997 112.173C221.478 112.175 221.053 112.571 221.005 113.076L221.001 113.179L222.09 291.141L222.562 365.882L222.868 457.063C222.96 484.381 225.091 504.265 240.22 516.678L240.95 517.263C257.078 529.895 282.736 536.152 317.922 536.034L573.28 535.179C573.798 535.177 574.223 534.782 574.272 534.278L574.276 534.176L574.044 464.815L574.039 464.713C573.986 464.209 573.559 463.817 573.041 463.818L317.683 464.675L316.747 464.672C297.264 464.493 287.496 456.599 287.443 440.989L287.244 381.523C287.191 365.666 297.218 357.702 317.324 357.635L572.683 356.779C573.235 356.777 573.68 356.328 573.679 355.776L572.861 111.997C572.859 111.445 572.411 110.998 571.858 111L221.997 112.173ZM360.979 183.066C361.496 183.065 361.923 183.457 361.977 183.961L361.982 184.063L362.244 262.354C362.297 278.211 352.271 286.173 332.165 286.24L322.111 286.273L321.176 286.271C301.692 286.093 291.925 278.198 291.872 262.589L291.609 184.3L291.614 184.197C291.664 183.693 292.089 183.298 292.606 183.296L360.979 183.066ZM501.725 182.595C502.242 182.593 502.67 182.985 502.723 183.489L502.729 183.592L502.951 249.988C503.004 265.846 492.976 273.807 472.87 273.875L462.818 273.909L461.883 273.906C442.399 273.727 432.631 265.833 432.578 250.224L432.355 183.828L432.36 183.726C432.407 183.255 432.78 182.879 433.25 182.829L433.353 182.824L501.725 182.595Z" fill="white"/>
<path d="M571.671 55.001L571.487 0.00128555L571.671 55.001ZM628.861 111.81L573.862 111.994V111.994L628.861 111.81ZM629.679 355.588L684.678 355.404V355.403L629.679 355.588ZM629.676 355.916L574.676 355.791L574.55 410.916H629.676V355.916ZM629.693 355.916H684.693V300.916H629.693V355.916ZM629.693 458.479H574.693V461.513L575.027 464.529L629.693 458.479ZM630.044 464.628L685.044 464.444V464.444L630.044 464.628ZM630.276 533.987L575.277 534.172V534.172L630.276 533.987ZM573.468 591.179L573.652 646.178H573.652L573.468 591.179ZM318.109 592.034L318.294 647.034H318.294L318.109 592.034ZM206.419 561.35H151.419V588.133L172.505 604.649L206.419 561.35ZM206.419 561.349H261.419V534.566L240.334 518.05L206.419 561.349ZM166.868 457.251L111.868 457.435V457.435L166.868 457.251ZM166.563 366.235L221.563 366.051L221.563 365.969L221.562 365.888L166.563 366.235ZM166.091 291.494H111.091V291.668L111.092 291.842L166.091 291.494ZM166.091 291.483H221.091V291.315L221.09 291.147L166.091 291.483ZM165.001 113.522L110.002 113.859V113.859L165.001 113.522ZM221.81 56.1729L221.625 1.17316H221.625L221.81 56.1729ZM221.997 112.173L221.813 57.1732L221.808 57.1732L221.997 112.173ZM221.005 113.076L166.256 107.824L166.105 109.4L166.045 110.982L221.005 113.076ZM221.001 113.179L166.041 111.085L165.995 112.3L166.002 113.515L221.001 113.179ZM222.09 291.141L167.091 291.477L167.091 291.488L222.09 291.141ZM222.562 365.882L277.562 365.697L277.562 365.616L277.561 365.534L222.562 365.882ZM222.868 457.063L277.868 456.879L277.868 456.879L222.868 457.063ZM240.22 516.678L205.333 559.198L205.586 559.405L205.841 559.609L240.22 516.678ZM240.95 517.263L206.571 560.194L206.802 560.379L207.036 560.562L240.95 517.263ZM317.922 536.034L318.106 591.034L317.922 536.034ZM573.28 535.179L573.465 590.178L573.476 590.178L573.28 535.179ZM574.272 534.278L629.006 539.69L629.169 538.034L629.233 536.372L574.272 534.278ZM574.276 534.176L629.237 536.27L629.28 535.131L629.276 533.991L574.276 534.176ZM574.044 464.815L629.044 464.631L629.04 463.415L628.982 462.199L574.044 464.815ZM574.039 464.713L628.977 462.097L628.902 460.524L628.737 458.958L574.039 464.713ZM573.041 463.818L572.862 408.819H572.857L573.041 463.818ZM317.683 464.675L317.51 519.675L317.689 519.675L317.867 519.674L317.683 464.675ZM316.747 464.672L316.242 519.67L316.409 519.671L316.575 519.672L316.747 464.672ZM287.443 440.989L232.444 441.174L232.444 441.174L287.443 440.989ZM287.244 381.523L232.244 381.707V381.708L287.244 381.523ZM317.324 357.635L317.14 302.635H317.14L317.324 357.635ZM572.683 356.779L572.867 411.779L572.879 411.779L572.891 411.779L572.683 356.779ZM573.679 355.776L628.678 355.617L628.678 355.604L628.678 355.592L573.679 355.776ZM572.861 111.997L517.862 112.181V112.181L572.861 111.997ZM571.858 111L571.674 56.0003L571.674 56.0003L571.858 111ZM360.979 183.066L360.794 128.067L360.794 128.067L360.979 183.066ZM361.977 183.961L416.887 180.823L416.812 179.51L416.674 178.201L361.977 183.961ZM361.982 184.063L416.982 183.88L416.977 182.401L416.893 180.926L361.982 184.063ZM362.244 262.354L417.244 262.17V262.17L362.244 262.354ZM332.165 286.24L332.347 341.24H332.35L332.165 286.24ZM322.111 286.273L321.997 341.273L322.145 341.274L322.293 341.273L322.111 286.273ZM321.176 286.271L320.671 341.269L320.866 341.271L321.061 341.271L321.176 286.271ZM291.872 262.589L236.872 262.773V262.774L291.872 262.589ZM291.609 184.3L236.672 181.684L236.605 183.083L236.61 184.484L291.609 184.3ZM291.614 184.197L236.879 178.809L236.743 180.193L236.677 181.581L291.614 184.197ZM292.606 183.296L292.791 238.296H292.791L292.606 183.296ZM501.725 182.595L501.54 127.595L501.54 127.595L501.725 182.595ZM502.723 183.489L557.633 180.352L557.558 179.038L557.42 177.729L502.723 183.489ZM502.729 183.592L557.728 183.407L557.723 181.93L557.639 180.454L502.729 183.592ZM502.951 249.988L557.951 249.805V249.804L502.951 249.988ZM472.87 273.875L472.685 218.875L472.683 218.875L472.87 273.875ZM462.818 273.909L462.646 328.909L462.826 328.909L463.005 328.909L462.818 273.909ZM461.883 273.906L461.378 328.904L461.544 328.905L461.711 328.906L461.883 273.906ZM432.578 250.224L377.578 250.408V250.408L432.578 250.224ZM432.355 183.828L377.418 181.212L377.351 182.612L377.356 184.013L432.355 183.828ZM432.36 183.726L377.625 178.338L377.489 179.721L377.423 181.11L432.36 183.726ZM433.25 182.829L430.634 127.891L429.061 127.966L427.495 128.131L433.25 182.829ZM433.353 182.824L433.168 127.825L431.952 127.829L430.736 127.886L433.353 182.824ZM571.671 55.001L571.855 110.001C572.96 109.997 573.858 110.889 573.862 111.994L628.861 111.81L683.861 111.625C683.654 49.7688 633.341 -0.205894 571.487 0.00128555L571.671 55.001ZM628.861 111.81L573.862 111.994L574.679 355.772L629.679 355.588L684.678 355.403L683.861 111.625L628.861 111.81ZM629.679 355.588L574.679 355.772C574.679 355.643 574.679 355.529 574.679 355.433C574.679 355.337 574.68 355.255 574.681 355.191C574.681 355.159 574.681 355.131 574.681 355.107C574.682 355.083 574.682 355.063 574.682 355.048C574.682 355.032 574.682 355.02 574.682 355.012C574.683 355.005 574.683 355 574.683 355.001C574.683 355.001 574.683 355.002 574.683 355.005C574.683 355.006 574.683 355.007 574.682 355.009C574.682 355.01 574.682 355.012 574.682 355.014C574.682 355.022 574.682 355.036 574.682 355.052C574.682 355.068 574.681 355.09 574.681 355.114C574.681 355.139 574.68 355.168 574.68 355.2C574.68 355.233 574.679 355.27 574.679 355.311C574.678 355.352 574.678 355.397 574.678 355.447C574.677 355.544 574.676 355.66 574.676 355.791L629.676 355.916L684.676 356.041C684.675 356.243 684.674 356.397 684.673 356.468C684.672 356.504 684.672 356.53 684.672 356.534C684.672 356.536 684.672 356.537 684.672 356.531C684.672 356.527 684.672 356.515 684.672 356.503C684.673 356.461 684.675 356.32 684.676 356.148C684.678 355.97 684.679 355.712 684.678 355.404L629.679 355.588ZM629.676 355.916V410.916H629.693V355.916V300.916H629.676V355.916ZM629.693 355.916H574.693V458.479H629.693H684.693V355.916H629.693ZM629.693 458.479L575.027 464.529C575.04 464.642 575.044 464.735 575.044 464.812L630.044 464.628L685.044 464.444C685.03 460.365 684.794 456.356 684.36 452.43L629.693 458.479ZM630.044 464.628L575.044 464.812L575.277 534.172L630.276 533.987L685.276 533.803L685.044 464.444L630.044 464.628ZM630.276 533.987L575.277 534.172C575.28 535.277 574.387 536.175 573.283 536.179L573.468 591.179L573.652 646.178C635.509 645.971 685.483 595.657 685.276 533.803L630.276 533.987ZM573.468 591.179L573.284 536.179L317.925 537.034L318.109 592.034L318.294 647.034L573.652 646.178L573.468 591.179ZM318.109 592.034L317.925 537.034C282.651 537.153 256.722 530.887 240.333 518.05L206.419 561.35L172.505 604.649C218.038 640.313 274.348 647.181 318.294 647.034L318.109 592.034ZM206.419 561.35H261.419V561.349H206.419H151.419V561.35H206.419ZM206.419 561.349L240.334 518.05C223.992 505.249 221.959 484.364 221.868 457.067L166.868 457.251L111.868 457.435C111.939 478.431 109.138 555.014 172.504 604.647L206.419 561.349ZM166.868 457.251L221.868 457.067L221.563 366.051L166.563 366.235L111.564 366.419L111.868 457.435L166.868 457.251ZM166.563 366.235L221.562 365.888L221.09 291.146L166.091 291.494L111.092 291.842L111.565 366.583L166.563 366.235ZM166.091 291.494H221.091V291.483H166.091H111.091V291.494H166.091ZM166.091 291.483L221.09 291.147L220 113.186L165.001 113.522L110.002 113.859L111.092 291.82L166.091 291.483ZM165.001 113.522L220 113.186C219.993 112.079 220.887 111.176 221.994 111.173L221.81 56.1729L221.625 1.17316C159.648 1.38087 109.623 51.884 110.002 113.859L165.001 113.522ZM221.81 56.1729L221.994 111.173L571.855 110.001L571.671 55.001L571.487 0.00128555L221.625 1.17316L221.81 56.1729ZM221.997 112.173L221.808 57.1732C192.744 57.2728 168.978 79.4554 166.256 107.824L221.005 113.076L275.754 118.328C273.129 145.686 250.213 167.076 222.186 167.173L221.997 112.173ZM221.005 113.076L166.045 110.982L166.041 111.085L221.001 113.179L275.961 115.272L275.965 115.17L221.005 113.076ZM221.001 113.179L166.002 113.515L167.091 291.477L222.09 291.141L277.089 290.804L276 112.842L221.001 113.179ZM222.09 291.141L167.091 291.488L167.564 366.23L222.562 365.882L277.561 365.534L277.089 290.793L222.09 291.141ZM222.562 365.882L167.563 366.066L167.868 457.248L222.868 457.063L277.868 456.879L277.562 365.697L222.562 365.882ZM222.868 457.063L167.868 457.248C167.948 481.073 167.614 528.25 205.333 559.198L240.22 516.678L275.106 474.158C276.593 475.378 277.893 476.947 278.78 478.484C279.57 479.854 279.582 480.419 279.324 479.368C279.044 478.225 278.635 475.963 278.332 471.982C278.029 468.005 277.889 463.148 277.868 456.879L222.868 457.063ZM240.22 516.678L205.841 559.609L206.571 560.194L240.95 517.263L275.329 474.332L274.599 473.747L240.22 516.678ZM240.95 517.263L207.036 560.562C237.732 584.605 278.575 591.166 318.106 591.034L317.922 536.034L317.738 481.034C286.896 481.138 276.424 475.185 274.865 473.964L240.95 517.263ZM317.922 536.034L318.106 591.034L573.465 590.178L573.28 535.179L573.096 480.179L317.738 481.034L317.922 536.034ZM573.28 535.179L573.476 590.178C602.442 590.076 626.205 568.018 629.006 539.69L574.272 534.278L519.539 528.867C522.241 501.546 545.153 480.278 573.085 480.179L573.28 535.179ZM574.272 534.278L629.233 536.372L629.237 536.27L574.276 534.176L519.316 532.082L519.312 532.185L574.272 534.278ZM574.276 534.176L629.276 533.991L629.044 464.631L574.044 464.815L519.044 465L519.277 534.36L574.276 534.176ZM574.044 464.815L628.982 462.199L628.977 462.097L574.039 464.713L519.101 467.329L519.106 467.432L574.044 464.815ZM574.039 464.713L628.737 458.958C625.763 430.685 601.889 408.724 572.862 408.819L573.041 463.818L573.22 518.818C545.228 518.909 522.209 497.733 519.341 470.468L574.039 464.713ZM573.041 463.818L572.857 408.819L317.498 409.675L317.683 464.675L317.867 519.674L573.225 518.818L573.041 463.818ZM317.683 464.675L317.855 409.675L316.919 409.672L316.747 464.672L316.575 519.672L317.51 519.675L317.683 464.675ZM316.747 464.672L317.252 409.674C313.459 409.639 320.566 408.718 329.38 415.84C334.141 419.688 337.813 424.686 340.053 430.046C342.159 435.087 342.437 439.072 342.443 440.805L287.443 440.989L232.444 441.174C232.511 461.124 239.411 484.563 260.238 501.394C278.819 516.411 300.552 519.526 316.242 519.67L316.747 464.672ZM287.443 440.989L342.443 440.805L342.244 381.339L287.244 381.523L232.244 381.708L232.444 441.174L287.443 440.989ZM287.244 381.523L342.244 381.34C342.25 383.099 341.99 387.187 339.827 392.352C337.524 397.852 333.748 402.901 328.93 406.727C320.118 413.726 313.198 412.649 317.509 412.634L317.324 357.635L317.14 302.635C301.344 302.688 279.358 305.627 260.519 320.588C239.201 337.519 232.177 361.366 232.244 381.707L287.244 381.523ZM317.324 357.635L317.508 412.634L572.867 411.779L572.683 356.779L572.498 301.78L317.14 302.635L317.324 357.635ZM572.683 356.779L572.891 411.779C603.81 411.662 628.768 386.514 628.678 355.617L573.679 355.776L518.679 355.936C518.592 326.142 542.659 301.892 572.475 301.78L572.683 356.779ZM573.679 355.776L628.678 355.592L627.861 111.813L572.861 111.997L517.862 112.181L518.679 355.961L573.679 355.776ZM572.861 111.997L627.861 111.813C627.758 80.945 602.662 55.8967 571.674 56.0003L571.858 111L572.042 166C542.159 166.1 517.961 141.945 517.862 112.181L572.861 111.997ZM571.858 111L571.674 56.0003L221.813 57.1732L221.997 112.173L222.181 167.173L572.043 166L571.858 111ZM360.979 183.066L361.163 238.066C333.157 238.16 310.149 216.972 307.279 189.721L361.977 183.961L416.674 178.201C413.698 149.942 389.835 127.969 360.794 128.067L360.979 183.066ZM361.977 183.961L307.066 187.099L307.072 187.201L361.982 184.063L416.893 180.926L416.887 180.823L361.977 183.961ZM361.982 184.063L306.983 184.247L307.244 262.537L362.244 262.354L417.244 262.17L416.982 183.88L361.982 184.063ZM362.244 262.354L307.244 262.537C307.239 260.777 307.499 256.689 309.662 251.524C311.965 246.023 315.741 240.974 320.56 237.147C329.373 230.149 336.292 231.226 331.98 231.241L332.165 286.24L332.35 341.24C348.144 341.187 370.129 338.249 388.968 323.289C410.288 306.358 417.312 282.511 417.244 262.17L362.244 262.354ZM332.165 286.24L331.983 231.241L321.93 231.274L322.111 286.273L322.293 341.273L332.347 341.24L332.165 286.24ZM322.111 286.273L322.226 231.274L321.291 231.272L321.176 286.271L321.061 341.271L321.997 341.273L322.111 286.273ZM321.176 286.271L321.68 231.274C317.888 231.239 324.995 230.317 333.808 237.44C338.569 241.288 342.242 246.286 344.481 251.646C346.588 256.686 346.866 260.671 346.872 262.404L291.872 262.589L236.872 262.774C236.939 282.724 243.84 306.162 264.666 322.993C283.247 338.01 304.98 341.125 320.671 341.269L321.176 286.271ZM291.872 262.589L346.872 262.404L346.609 184.115L291.609 184.3L236.61 184.484L236.872 262.773L291.872 262.589ZM291.609 184.3L346.547 186.916L346.552 186.813L291.614 184.197L236.677 181.581L236.672 181.684L291.609 184.3ZM291.614 184.197L346.35 189.585C343.665 216.862 320.793 238.202 292.791 238.296L292.606 183.296L292.422 128.296C263.384 128.394 239.663 150.524 236.879 178.809L291.614 184.197ZM292.606 183.296L292.791 238.296L361.163 238.066L360.979 183.066L360.794 128.067L292.422 128.296L292.606 183.296ZM501.725 182.595L501.909 237.594C473.903 237.688 450.895 216.5 448.025 189.249L502.723 183.489L557.42 177.729C554.445 149.471 530.581 127.498 501.54 127.595L501.725 182.595ZM502.723 183.489L447.812 186.627L447.818 186.73L502.729 183.592L557.639 180.454L557.633 180.352L502.723 183.489ZM502.729 183.592L447.729 183.776L447.951 250.173L502.951 249.988L557.951 249.804L557.728 183.407L502.729 183.592ZM502.951 249.988L447.951 250.172C447.946 248.411 448.206 244.323 450.369 239.156C452.673 233.656 456.45 228.607 461.268 224.78C470.08 217.783 476.998 218.861 472.685 218.875L472.87 273.875L473.055 328.875C488.848 328.822 510.833 325.884 529.672 310.925C550.993 293.996 558.019 270.149 557.951 249.805L502.951 249.988ZM472.87 273.875L472.683 218.875L462.631 218.91L462.818 273.909L463.005 328.909L473.057 328.875L472.87 273.875ZM462.818 273.909L462.991 218.909L462.055 218.907L461.883 273.906L461.711 328.906L462.646 328.909L462.818 273.909ZM461.883 273.906L462.387 218.909C458.595 218.874 465.701 217.952 474.514 225.074C479.275 228.921 482.948 233.919 485.187 239.279C487.294 244.32 487.572 248.306 487.578 250.039L432.578 250.224L377.578 250.408C377.645 270.36 384.547 293.798 405.374 310.629C423.955 325.645 445.688 328.76 461.378 328.904L461.883 273.906ZM432.578 250.224L487.578 250.039L487.355 183.644L432.355 183.828L377.356 184.013L377.578 250.408L432.578 250.224ZM432.355 183.828L487.293 186.444L487.298 186.342L432.36 183.726L377.423 181.11L377.418 181.212L432.355 183.828ZM432.36 183.726L487.096 189.114C484.591 214.557 464.557 234.839 439.005 237.527L433.25 182.829L427.495 128.131C401.002 130.918 380.222 151.953 377.625 178.338L432.36 183.726ZM433.25 182.829L435.866 237.767L435.969 237.762L433.353 182.824L430.736 127.886L430.634 127.891L433.25 182.829ZM433.353 182.824L433.537 237.824L501.909 237.594L501.725 182.595L501.54 127.595L433.168 127.825L433.353 182.824Z" fill="#00308F" mask="url(#path-1-outside-1_1081_79)"/>
<path d="M233.78 500.603L237.06 499.716L291.859 484.88L305.733 481.124V604.766L309.348 618.196L312.2 628.795L311.362 629.021L312.74 634.176L318.627 656.207L321.374 666.487L311.191 669.574L242.358 690.439L231.315 693.787L228.5 682.597L222.612 659.198L220.007 648.842L220.395 648.731L218.784 642.717L216.762 635.169L162.278 649.958V698.583L154.152 700.782L99.3525 715.618L85.4775 719.374V633.822L18.8965 614.239L11 611.917V540.795L7.90625 540.994L11 527.795V518.751L13.1533 518.612L23.8916 472.806L26.4189 462.023L37.1836 464.623L42.8975 466.002L42.9746 465.718L53.4785 468.558L64.29 471.169L64.2119 471.46L154.412 495.855L156.979 496.549V419.417L165.105 417.218L219.905 402.382L233.78 398.626V500.603ZM84.7754 563.543L91.5264 565.139V547.34L84.7754 545.744V563.543Z" fill="white" stroke="#00308F" stroke-width="22"/>
</svg>
